<?xml version="1.0" encoding="UTF-8"?><svg id="a" xmlns="http://www.w3.org/2000/svg" viewBox="0 0 400 400"><defs><style>.b{fill:#1a1a1a;fill-rule:evenodd;}.c{fill:#a7ff4a;}</style></defs><rect class="c" x="-1" y="-1" width="402" height="402"/><path class="b" d="M251.5,173.1v61.9c0,3.7-3.1,6.8-6.8,6.8s-6.8-3.1-6.8-6.8v-61.9c0-21-17-38.1-37.9-38.1s-37.9,17.1-37.9,38.1v61.9c0,3.7-3.1,6.8-6.8,6.8s-6.8-3.1-6.8-6.8v-61.9c0-21-17-38.1-37.9-38.1s-37.9,17.1-37.9,38.1v87.8h23.1v-87.8c0-8.2,6.7-14.9,14.9-14.9s14.9,6.7,14.9,14.9v61.9c0,16.5,13.4,30,29.9,30s29.9-13.5,29.9-30v-61.9c0-8.2,6.7-14.9,14.9-14.9s14.9,6.7,14.9,14.9v61.9c0,16.5,13.4,30,29.9,30s29.9-13.5,29.9-30v-61.9c0-8.2,6.7-14.9,14.9-14.9s14.9,6.7,14.9,14.9v87.8h23.1v-87.8c0-21-17-38.1-37.9-38.1s-37.9,17.1-37.9,38.1Z"/></svg>